<mxfile host="app.diagrams.net" agent="Mozilla/5.0 (Windows NT 10.0; Win64; x64) AppleWebKit/537.36 (KHTML, like Gecko) Chrome/134.0.0.0 Safari/537.36" version="26.2.8">
  <diagram name="第 1 页" id="8TXgOGyWZ18_ac1B9GkZ">
    <mxGraphModel dx="450" dy="289" grid="1" gridSize="10" guides="1" tooltips="1" connect="1" arrows="1" fold="1" page="1" pageScale="1" pageWidth="827" pageHeight="1169" math="0" shadow="0">
      <root>
        <mxCell id="0" />
        <mxCell id="1" parent="0" />
        <mxCell id="z9c3xOm7jA31M863JDLt-18" style="edgeStyle=orthogonalEdgeStyle;rounded=0;orthogonalLoop=1;jettySize=auto;html=1;exitX=1;exitY=0.5;exitDx=0;exitDy=0;entryX=0;entryY=0.5;entryDx=0;entryDy=0;" edge="1" parent="1" source="z9c3xOm7jA31M863JDLt-1" target="z9c3xOm7jA31M863JDLt-2">
          <mxGeometry relative="1" as="geometry" />
        </mxCell>
        <mxCell id="z9c3xOm7jA31M863JDLt-1" value="APP" style="rounded=1;whiteSpace=wrap;html=1;fillColor=#d5e8d4;strokeColor=#82b366;" vertex="1" parent="1">
          <mxGeometry x="160" y="200" width="40" height="40" as="geometry" />
        </mxCell>
        <mxCell id="z9c3xOm7jA31M863JDLt-19" style="edgeStyle=orthogonalEdgeStyle;rounded=0;orthogonalLoop=1;jettySize=auto;html=1;exitX=1;exitY=0.5;exitDx=0;exitDy=0;entryX=0;entryY=0.5;entryDx=0;entryDy=0;" edge="1" parent="1" source="z9c3xOm7jA31M863JDLt-2" target="z9c3xOm7jA31M863JDLt-3">
          <mxGeometry relative="1" as="geometry" />
        </mxCell>
        <mxCell id="z9c3xOm7jA31M863JDLt-2" value="node" style="rounded=1;whiteSpace=wrap;html=1;fillColor=#dae8fc;strokeColor=#6c8ebf;" vertex="1" parent="1">
          <mxGeometry x="220" y="200" width="40" height="40" as="geometry" />
        </mxCell>
        <mxCell id="z9c3xOm7jA31M863JDLt-20" style="edgeStyle=orthogonalEdgeStyle;rounded=0;orthogonalLoop=1;jettySize=auto;html=1;exitX=1;exitY=0.5;exitDx=0;exitDy=0;entryX=0;entryY=0.5;entryDx=0;entryDy=0;" edge="1" parent="1" source="z9c3xOm7jA31M863JDLt-3" target="z9c3xOm7jA31M863JDLt-17">
          <mxGeometry relative="1" as="geometry" />
        </mxCell>
        <mxCell id="z9c3xOm7jA31M863JDLt-3" value="Kernel&lt;div&gt;Driver&lt;/div&gt;" style="rounded=1;whiteSpace=wrap;html=1;fillColor=#fff2cc;strokeColor=#d6b656;" vertex="1" parent="1">
          <mxGeometry x="280" y="200" width="40" height="40" as="geometry" />
        </mxCell>
        <mxCell id="z9c3xOm7jA31M863JDLt-5" value="IIO" style="text;html=1;align=center;verticalAlign=middle;whiteSpace=wrap;rounded=0;" vertex="1" parent="1">
          <mxGeometry x="241" y="218" width="60" height="30" as="geometry" />
        </mxCell>
        <mxCell id="z9c3xOm7jA31M863JDLt-9" style="edgeStyle=orthogonalEdgeStyle;rounded=0;orthogonalLoop=1;jettySize=auto;html=1;exitX=1;exitY=0.5;exitDx=0;exitDy=0;entryX=0;entryY=0.5;entryDx=0;entryDy=0;" edge="1" parent="1" source="z9c3xOm7jA31M863JDLt-7" target="z9c3xOm7jA31M863JDLt-8">
          <mxGeometry relative="1" as="geometry" />
        </mxCell>
        <mxCell id="z9c3xOm7jA31M863JDLt-7" value="i2c_client" style="rounded=1;whiteSpace=wrap;html=1;fillColor=#fff2cc;strokeColor=#d6b656;fontSize=9;" vertex="1" parent="1">
          <mxGeometry x="160" y="260" width="40" height="40" as="geometry" />
        </mxCell>
        <mxCell id="z9c3xOm7jA31M863JDLt-16" style="edgeStyle=orthogonalEdgeStyle;rounded=0;orthogonalLoop=1;jettySize=auto;html=1;exitX=1;exitY=0.5;exitDx=0;exitDy=0;" edge="1" parent="1" source="z9c3xOm7jA31M863JDLt-8" target="z9c3xOm7jA31M863JDLt-10">
          <mxGeometry relative="1" as="geometry" />
        </mxCell>
        <mxCell id="z9c3xOm7jA31M863JDLt-8" value="iio_dev" style="rounded=1;whiteSpace=wrap;html=1;fillColor=#fff2cc;strokeColor=#d6b656;" vertex="1" parent="1">
          <mxGeometry x="220" y="260" width="40" height="40" as="geometry" />
        </mxCell>
        <mxCell id="z9c3xOm7jA31M863JDLt-10" value="read func" style="rounded=1;whiteSpace=wrap;html=1;fillColor=#fff2cc;strokeColor=#d6b656;" vertex="1" parent="1">
          <mxGeometry x="280" y="260" width="40" height="40" as="geometry" />
        </mxCell>
        <mxCell id="z9c3xOm7jA31M863JDLt-15" style="edgeStyle=orthogonalEdgeStyle;rounded=0;orthogonalLoop=1;jettySize=auto;html=1;exitX=0.5;exitY=0;exitDx=0;exitDy=0;entryX=0.5;entryY=1;entryDx=0;entryDy=0;" edge="1" parent="1" source="z9c3xOm7jA31M863JDLt-14" target="z9c3xOm7jA31M863JDLt-8">
          <mxGeometry relative="1" as="geometry" />
        </mxCell>
        <mxCell id="z9c3xOm7jA31M863JDLt-14" value="iio_chan_spec" style="rounded=1;whiteSpace=wrap;html=1;fillColor=#fff2cc;strokeColor=#d6b656;" vertex="1" parent="1">
          <mxGeometry x="220" y="320" width="40" height="40" as="geometry" />
        </mxCell>
        <mxCell id="z9c3xOm7jA31M863JDLt-17" value="read func" style="rounded=1;whiteSpace=wrap;html=1;fillColor=#fff2cc;strokeColor=#d6b656;" vertex="1" parent="1">
          <mxGeometry x="340" y="200" width="40" height="40" as="geometry" />
        </mxCell>
      </root>
    </mxGraphModel>
  </diagram>
</mxfile>
